Coordinates
version=1
nRows=14
nColumns=40
inDegrees=yes

Units are S.I. units (second, meters, Newtons, ...)
Angles are in degrees.

endheader
time	pelvis_tilt	pelvis_list	pelvis_rotation	pelvis_tx	pelvis_ty	pelvis_tz	hip_flexion_r	hip_adduction_r	hip_rotation_r	knee_angle_r	knee_angle_r_beta	ankle_angle_r	subtalar_angle_r	mtp_angle_r	hip_flexion_l	hip_adduction_l	hip_rotation_l	knee_angle_l	knee_angle_l_beta	ankle_angle_l	subtalar_angle_l	mtp_angle_l	lumbar_extension	lumbar_bending	lumbar_rotation	arm_flex_r	arm_add_r	arm_rot_r	elbow_flex_r	pro_sup_r	wrist_flex_r	wrist_dev_r	arm_flex_l	arm_add_l	arm_rot_l	elbow_flex_l	pro_sup_l	wrist_flex_l	wrist_dev_l
      0.00000000	      2.71606554	     -3.05323483	     -3.59993149	     -1.36336164	      0.88305981	      0.94313903	     23.62333875	     -1.48058672	    -22.16288118	    -16.51556859	     -0.28825105	     -4.50376357	      7.35031100	     -2.03229967	    -12.21346712	     -0.93606325	      9.16653512	    -14.27034081	     -0.24906443	     13.54098406	     -9.35666781	     -5.25767696	    -11.45474750	      4.10439885	     -2.40004461	     -2.27675085	     -8.94077797	     11.90979808	     11.33705300	     89.95437384	      0.00000000	      0.00000000	     16.30426096	     12.86467484	    -14.66501880	     40.14162488	     89.95437384	      0.00000000	      0.00000000
      0.01000000	      2.46600154	     -2.88064907	     -3.50924435	     -1.35446120	      0.88192266	      0.94462505	     24.02886212	     -1.46725428	    -21.95269198	    -16.67831460	     -0.29109150	     -4.45718610	      7.15210549	     -2.00786231	    -12.33425095	     -0.94362462	      8.99806967	    -14.71072844	     -0.25675065	     13.30059372	     -9.12272619	     -5.18733096	    -11.27665357	      4.00495179	     -2.38035330	     -2.44596402	     -8.94640509	     11.87575611	     11.66257066	     89.95437384	      0.00000000	      0.00000000	     16.35336166	     12.84496673	    -14.55057488	     40.40435459	     89.95437384	      0.00000000	      0.00000000
      0.02000000	      2.26344845	     -3.10762754	     -3.14467850	     -1.34468185	      0.88105205	      0.94602317	     23.84433102	     -1.02389877	    -22.01319702	    -16.34968839	     -0.28535589	     -4.12134956	      7.25774198	     -2.15300862	    -12.74117286	     -0.47021169	      8.35154855	    -14.80856546	     -0.25845822	     13.44018112	     -9.48777516	     -5.35438787	    -11.00806239	      4.39955836	     -2.68409940	     -2.43849776	     -8.92624864	     11.88520212	     11.52207718	     89.95437384	      0.00000000	      0.00000000	     16.14428983	     12.80647196	    -14.32232933	     40.62308678	     89.95437384	      0.00000000	      0.00000000
      0.03000000	      1.99503155	     -2.93084928	     -2.96450308	     -1.33523410	      0.88003996	      0.94756937	     24.03306680	     -1.01852139	    -21.65572109	    -16.76627878	     -0.29262677	     -4.15982819	      6.99993821	     -2.11377720	    -12.80619344	     -0.43670948	      8.16539056	    -15.34327262	     -0.26779063	     13.10838814	     -9.19838587	     -5.26165204	    -10.75414913	      4.28136913	     -2.72354675	     -2.65457547	     -8.93057713	     11.83597700	     11.94031235	     89.95437384	      0.00000000	      0.00000000	     16.04734703	     12.76486712	    -14.19680051	     40.82485977	     89.95437384	      0.00000000	      0.00000000
      0.04000000	      1.84917674	     -3.03842578	     -2.52495330	     -1.32525937	      0.87934049	      0.94880906	     23.96173448	     -0.81969931	    -21.34445806	    -17.41293490	     -0.30391305	     -4.35563855	      6.61432734	     -2.10880747	    -13.18424094	     -0.05501359	      7.67393120	    -15.58213420	     -0.27195955	     12.98894236	     -9.43315907	     -5.31725091	    -10.53728007	      4.53905457	     -3.11141735	     -2.61933774	     -8.90532112	     11.85653710	     11.90858927	     89.95437384	      0.00000000	      0.00000000	     15.86766335	     12.66129529	    -13.96549892	     40.70215371	     89.95437384	      0.00000000	      0.00000000
      0.05000000	      1.85401325	     -3.37472890	     -2.00413014	     -1.31504080	      0.87898772	      0.95031653	     23.41928658	     -0.20312703	    -20.76737378	    -17.54168411	     -0.30616014	     -5.70844695	      4.52179581	     -2.30469063	    -13.49741915	      0.79699486	      8.06579926	    -16.26657397	     -0.28390527	     12.01293528	    -11.08211165	     -6.32588701	    -10.51350712	      5.01430124	     -3.51741845	     -2.61241010	     -8.89186694	     11.71483725	     12.05174717	     89.95437384	      0.00000000	      0.00000000	     15.51644582	     12.47631331	    -13.35766214	     40.77324948	     89.95437384	      0.00000000	      0.00000000
      0.06000000	      1.59398681	     -3.37109558	     -1.72888536	     -1.30511192	      0.87842150	      0.95181757	     23.49131618	     -0.10773560	    -20.26364840	    -18.05240824	     -0.31507396	     -8.12275154	      4.29716426	     -1.99160077	    -13.61260223	      1.01750276	      7.58068619	    -16.73377929	     -0.29205954	     11.61730591	    -10.99073982	     -6.35282488	    -10.22210980	      5.12081702	     -3.67185801	     -2.61242771	     -8.87408180	     11.82051021	     12.16058716	     89.95437384	      0.00000000	      0.00000000	     15.32295754	     12.33995940	    -13.31275160	     40.49194647	     89.95437384	      0.00000000	      0.00000000
      0.07000000	      1.33967205	     -3.46505116	     -1.42395957	     -1.29534426	      0.87817599	      0.95328409	     23.64108618	      0.09407786	    -19.47276572	    -18.68020536	     -0.32603109	     -8.59200242	      4.17569376	     -1.92734763	    -13.60191175	      1.35475387	      7.17280587	    -17.39703777	     -0.30363559	     11.10745290	    -10.60451452	     -6.23284945	    -10.00072051	      5.34689400	     -3.90136034	     -2.61057746	     -8.92940676	     11.80183969	     12.55369242	     89.95437384	      0.00000000	      0.00000000	     15.05587865	     12.22654859	    -13.22413391	     40.25387120	     89.95437384	      0.00000000	      0.00000000
      0.08000000	      1.12114279	     -3.86045673	     -1.12921229	     -1.28523458	      0.87835735	      0.95494337	     23.65900592	      0.49932367	    -19.54616585	    -19.28674336	     -0.33661717	     -8.74189137	      3.20877739	     -1.84049365	    -13.60170160	      2.00486851	      6.73384786	    -18.17573806	     -0.31722647	     10.42336884	    -10.27203415	     -6.14469429	     -9.76093501	      5.88531031	     -3.96439884	     -2.45441032	     -8.94385220	     11.90047942	     12.44548857	     89.95437384	      0.00000000	      0.00000000	     14.89558859	     11.87017406	    -13.08142467	     39.50644504	     89.95437384	      0.00000000	      0.00000000
      0.09000000	      0.82547623	     -4.60977017	     -0.80885698	     -1.27523590	      0.87877362	      0.95709371	     23.35529572	      1.83249976	    -18.21581784	    -19.05801713	     -0.33262515	     -9.06594270	     -2.36548661	     -1.37743020	    -13.17525175	      3.31479379	      7.27673497	    -19.56972940	     -0.34155621	      9.48876023	    -11.12098677	     -6.80524642	     -9.50084191	      6.77027867	     -4.12179659	     -2.31004624	     -9.03101071	     12.27311960	     12.64566515	     89.95437384	      0.00000000	      0.00000000	     14.51811534	     11.53179964	    -12.53627477	     38.97403308	     89.95437384	      0.00000000	      0.00000000
      0.10000000	      0.65085178	     -4.83201145	     -0.64522896	     -1.26499297	      0.87952436	      0.95873002	     23.33645581	      2.16579645	    -17.68984147	    -19.99626627	     -0.34900068	     -8.54171487	     -2.44090680	     -1.41176895	    -13.11399351	      3.71635061	      6.83857224	    -20.46176924	     -0.35712524	      8.60695165	    -10.52609756	     -6.60480336	     -9.35402350	      7.10093590	     -4.14442601	     -2.11720717	     -9.07163427	     12.32713704	     12.75230974	     89.95437384	      0.00000000	      0.00000000	     14.22211344	     11.28450611	    -12.58445868	     38.24856474	     89.95437384	      0.00000000	      0.00000000
      0.11000000	      0.49009886	     -5.23917450	     -0.38996274	     -1.25444222	      0.88062047	      0.96038269	     22.97904604	      2.78569681	    -17.16682469	    -20.43039080	     -0.35657759	     -7.36098741	     -2.75981662	     -1.44032072	    -12.84366056	      4.43108911	      6.73610532	    -21.75463979	     -0.37969009	      7.35861460	    -10.04712171	     -6.48590895	     -9.13768729	      7.63645966	     -4.18477138	     -1.89161486	     -9.12007363	     12.49871243	     12.70321160	     89.95437384	      0.00000000	      0.00000000	     13.98842656	     10.89941713	    -12.59008912	     37.09728352	     89.95437384	      0.00000000	      0.00000000
      0.12000000	      0.43032950	     -5.53952629	     -0.25601742	     -1.24380383	      0.88211878	      0.96209027	     22.50233958	      3.23277544	    -16.85140130	    -20.92982094	     -0.36529429	     -6.41576177	     -3.09104386	     -1.41044951	    -12.62359507	      4.97722889	      6.66909728	    -23.12832446	     -0.40366541	      5.95775140	     -9.48746816	     -6.26974218	     -9.01660397	      8.03124930	     -4.11579557	     -1.53286678	     -9.12880723	     12.67958755	     12.48810557	     89.95437384	      0.00000000	      0.00000000	     13.75193987	     10.50709606	    -12.71015224	     35.84369140	     89.95437384	      0.00000000	      0.00000000
      0.13000000	      0.42331190	     -5.77329834	     -0.14801856	     -1.23325219	      0.88384144	      0.96384293	     21.88470083	      3.60521765	    -16.54168319	    -21.32001368	     -0.37210444	     -5.49051172	     -3.27676911	     -1.36589258	    -12.25141540	      5.45411705	      6.57961129	    -24.78017056	     -0.43249557	      4.35164557	     -8.90279514	     -6.01869840	     -8.98592517	      8.33591428	     -4.01666478	     -1.18460702	     -9.15078771	     12.86181321	     12.41090472	     89.95437384	      0.00000000	      0.00000000	     13.49563800	     10.15201291	    -12.87737393	     34.63390609	     89.95437384	      0.00000000	      0.00000000
